<?xml version="1.0" standalone="no"?><!DOCTYPE svg PUBLIC "-//W3C//DTD SVG 1.1//EN"
        "http://www.w3.org/Graphics/SVG/1.1/DTD/svg11.dtd">
<svg class="icon" width="200px" height="200.00px" viewBox="0 0 1024 1024" version="1.1"
     xmlns="http://www.w3.org/2000/svg">
    <path d="M512 512m-512 0a512 512 0 1 0 1024 0 512 512 0 1 0-1024 0Z" fill="#1296db"/>
    <path d="M402.00192 384a20.48 20.48 0 0 1-7.49568 27.9552l-154.13248 112.64a20.48 20.48 0 1 1-20.48-35.4304l154.13248-112.64a20.48 20.48 0 0 1 27.97568 7.4752z"
          fill="#EBBA50"/>
    <path d="M406.81472 634.88a20.48 20.48 0 0 0-7.4752-27.9552l-153.6-112.64a20.48 20.48 0 0 0-20.48 35.4304l153.6 112.64a20.3776 20.3776 0 0 0 27.9552-7.4752z"
          fill="#EBBA50"/>
    <path d="M622.1824 379.0848a20.72576 20.72576 0 0 0 7.68 28.4672l157.7984 114.7904a21.05344 21.05344 0 0 0 28.672-7.68 20.72576 20.72576 0 0 0-7.68-28.4672L650.8544 371.4048a21.05344 21.05344 0 0 0-28.672 7.68z"
          fill="#EBBA50"/>
    <path d="M617.2672 634.6752a20.72576 20.72576 0 0 1 7.68-28.4672l157.2864-114.7904a20.87936 20.87936 0 1 1 20.8896 36.1472L645.8368 642.3552a20.91008 20.91008 0 0 1-28.5696-7.68z"
          fill="#EBBA50"/>
    <path d="M551.7312 363.6224a20.55168 20.55168 0 0 1 14.5408 25.088l-68.94592 257.1264a20.48 20.48 0 1 1-39.55712-10.5472l68.87424-257.1264a20.59264 20.59264 0 0 1 25.088-14.5408z"
          fill="#EBBA50"/>
</svg>