<?xml version="1.0" standalone="no"?><!DOCTYPE svg PUBLIC "-//W3C//DTD SVG 1.1//EN"
        "http://www.w3.org/Graphics/SVG/1.1/DTD/svg11.dtd">
<svg class="icon" width="20px" height="20.00px" viewBox="0 0 1024 1024" version="1.1"
     xmlns="http://www.w3.org/2000/svg">
    <path d="M547.2 307.2c6.4-16 22.4-22.4 38.4-16 16 6.4 25.6 22.4 22.4 38.4v3.2l-128 384v3.2c-6.4 16-22.4 22.4-38.4 16-16-6.4-25.6-22.4-22.4-38.4v-3.2l128-384v-3.2z m102.4-9.6c12.8-12.8 28.8-12.8 41.6-3.2l3.2 3.2 192 192 3.2 3.2c9.6 12.8 9.6 28.8 0 38.4l-3.2 3.2-192 192-3.2 3.2c-12.8 9.6-28.8 9.6-38.4 0l-3.2-3.2-3.2-3.2c-9.6-12.8-9.6-28.8 0-38.4l3.2-3.2 169.6-169.6-169.6-169.6-3.2-3.2c-9.6-12.8-9.6-28.8 3.2-41.6z"
          fill="#1296db"/>
    <path d="M329.6 297.6c12.8-12.8 32-12.8 44.8 0 12.8 12.8 12.8 28.8 3.2 41.6l-3.2 3.2L204.8 512l169.6 169.6c12.8 12.8 12.8 28.8 3.2 41.6l-3.2 3.2c-12.8 12.8-28.8 12.8-41.6 3.2l-3.2-3.2-192-192c-12.8-12.8-12.8-28.8-3.2-41.6l3.2-3.2 192-192z"
          fill="#1296db"/>
</svg>